<?xml version="1.0" encoding="UTF-8" standalone="no"?>
<!-- Created with Inkscape (http://www.inkscape.org/) -->

<svg
   width="62.967896mm"
   height="64.001663mm"
   viewBox="0 0 62.967896 64.001663"
   version="1.1"
   id="svg5"
   xml:space="preserve"
   xmlns:inkscape="http://www.inkscape.org/namespaces/inkscape"
   xmlns:sodipodi="http://sodipodi.sourceforge.net/DTD/sodipodi-0.dtd"
   xmlns="http://www.w3.org/2000/svg"
   xmlns:svg="http://www.w3.org/2000/svg"><sodipodi:namedview
     id="namedview7"
     pagecolor="#ffffff"
     bordercolor="#666666"
     borderopacity="1.0"
     inkscape:showpageshadow="2"
     inkscape:pageopacity="0.0"
     inkscape:pagecheckerboard="0"
     inkscape:deskcolor="#d1d1d1"
     inkscape:document-units="mm"
     showgrid="false" /><defs
     id="defs2" /><g
     inkscape:label="Layer 1"
     inkscape:groupmode="layer"
     id="layer1"
     transform="translate(-72.171739,-160.1641)"><path
       style="fill:#c41e3a;fill-opacity:1;stroke:none;stroke-width:0.264583"
       d="m 100.23437,160.34377 c -4.549512,0.4689 -9.019568,1.86955 -12.964585,4.19373 -23.560933,13.88081 -18.507883,51.35121 7.9375,58.49998 3.516048,0.95065 7.218895,1.36155 10.847915,0.9959 4.78658,-0.48234 9.33,-1.91427 13.49375,-4.33626 3.57003,-2.07645 6.75852,-4.87363 9.23846,-8.17642 12.90505,-17.1876 5.37236,-43.50004 -15.58846,-49.96278 -4.16031,-1.28273 -8.63573,-1.66031 -12.96458,-1.21415 m 25.66458,43.76913 c -2.44316,-4.50957 -5.55228,-3.35016 -9.78958,-4.23334 2.71621,-1.92167 6.48626,-2.13387 8.86222,-4.41061 1.53432,-1.47002 2.04126,-3.38322 2.51486,-5.37897 -2.00236,0.0661 -4.03489,0.27543 -5.76553,1.3843 -1.84971,1.18533 -2.58816,3.20622 -4.03411,4.75773 -1.60575,1.72271 -3.89731,2.84163 -6.07536,3.64755 2.57016,-3.29988 4.72281,-5.02656 4.49792,-9.525 -1.86134,0.97049 -3.59331,2.13333 -4.68815,3.98145 -2.00184,3.37926 -1.61846,6.12801 -5.36602,8.45397 -0.17171,-6.2664 4.5429,-13.31675 10.58334,-15.49956 1.93622,-0.69956 3.84598,-0.0363 5.82083,-0.27755 2.78289,-0.34025 4.60507,-2.40189 6.08542,-4.59581 0,0 -3.12292,-1.33968 -5.82084,-0.85328 -2.69792,0.4864 -9.26041,5.08661 -9.26041,5.08661 0.37147,-1.34143 0.6731,-2.8702 1.55786,-3.98452 1.01177,-1.27428 2.7006,-1.80086 3.90155,-2.8711 1.67666,-1.49434 2.3286,-3.44222 2.74267,-5.57979 -1.07818,0.069 -2.15053,0.15681 -3.17871,0.51556 -5.05142,1.76213 -4.75535,7.59963 -6.81884,11.65527 -1.59596,3.13716 -4.20872,5.78591 -6.14203,8.73125 h -0.26459 c 0,-4.835 -0.4953,-9.85467 1.85949,-14.27485 1.3597,-2.55186 4.06586,-3.36952 5.68114,-5.62888 1.06151,-1.485 1.15728,-3.20762 1.19062,-4.9671 -5.3467,1.42486 -6.05419,6.29835 -8.99583,10.31875 h -0.26458 c -0.21246,-3.13373 1.55469,-5.47026 1.64438,-8.46667 0.0706,-2.3636 -1.31101,-4.38446 -2.43813,-6.35 -1.75578,1.77242 -3.3962,3.9783 -3.2139,6.61458 0.20479,2.96461 1.98438,5.07794 1.6264,8.20209 h -0.26459 c -2.884221,-4.06789 -3.71369,-8.80118 -8.995831,-10.31875 0.06474,1.85523 0.258471,3.67389 1.431316,5.19752 1.701879,2.21078 4.291886,3.08206 5.685185,5.65801 2.37754,4.39611 1.87933,9.45865 1.87933,14.27988 h -0.26458 c -1.886745,-3.13346 -4.633649,-5.7531 -6.299731,-8.99583 -1.839409,-3.58077 -1.627875,-8.67709 -5.383133,-10.97468 -1.355592,-0.82939 -2.926503,-1.12575 -4.45672,-1.46074 l -0.264584,0.26459 c 0,0 1.03779,3.49263 2.152518,4.91479 1.114728,1.42216 3.335912,2.00654 4.346363,3.33163 1.010451,1.32509 1.703202,4.18899 1.703202,4.18899 0,0 -6.603557,-4.62332 -9.260892,-5.09227 -2.657335,-0.46895 -5.555774,0.85894 -5.555774,0.85894 1.417108,2.19313 3.306366,4.37012 6.085469,4.60983 1.78779,0.15426 3.53531,-0.6096 5.291614,8e-4 5.77506,2.00633 11.577378,9.61416 10.847918,15.76229 -3.669508,-2.28733 -3.30306,-5.07445 -5.206737,-8.44206 -1.041559,-1.84283 -2.789184,-2.97683 -4.582848,-3.99336 -0.535649,4.64238 2.235174,6.15288 4.233334,9.78958 -1.912171,-1.01071 -4.023069,-2.00845 -5.607738,-3.50731 -1.238462,-1.17131 -1.918944,-2.77522 -3.089804,-4.00394 -1.869043,-1.96162 -4.31935,-2.43338 -6.912875,-2.54291 1.14181,6.76036 6.060652,6.63469 11.1125,9.525 v 0.26458 c -4.256352,0.89932 -7.286995,-0.18733 -9.789583,4.23334 1.5494,0.38232 3.159442,0.83582 4.756679,0.46064 1.863407,-0.43762 3.083639,-1.94628 4.794065,-2.67204 2.195565,-0.93159 4.779353,0.38418 6.559206,1.66371 5.334531,3.83434 3.716871,12.52828 -2.616809,14.44572 -3.188996,0.9652 -6.303063,-1.01283 -8.730482,-2.88899 -14.984442,-11.58081 -14.972562,-35.24806 0.529034,-46.40934 5.332836,-3.83966 11.503792,-5.3893 17.991638,-5.34133 3.4753,0.0257 6.82757,0.6451 10.05417,1.95469 20.19564,8.19665 24.11968,36.3443 6.87837,49.66634 -2.52042,1.9476 -5.66208,4.07246 -8.99213,2.99879 -6.24125,-2.0119 -7.66392,-10.89131 -2.34315,-14.62088 1.66555,-1.16734 3.96267,-2.23917 5.99917,-1.47929 1.72852,0.64479 3.00407,2.10662 4.81012,2.61568 1.68513,0.47519 3.37846,0.0124 5.0247,-0.3937 M 97.059369,182.94623 c 0.05186,3.51763 1.255183,5.461 3.968751,7.67291 0.40693,-3.52001 -0.62468,-6.15606 -3.968751,-7.67291 m 8.995831,7.67291 c 2.79506,-2.03464 4.1357,-4.21428 4.23334,-7.67291 -3.58326,1.40229 -4.20661,4.12062 -4.23334,7.67291 z"
       id="path183"
       sodipodi:nodetypes="ccccccscccccccccccccczcsccccccccccccccccccccccscczzczccccccccccccccscccssccccccccccccc" /></g></svg>
